Patient4_TMGait_0pt6_01_left_30_EMG.mot
version=1
nRows=20
nColumns=33
inDegrees=no
endheader
time	1LAddLong	2LGlutMax	3LGlutMed	4LIliopsoas	5LSemiMemb	6LBicFemLong	7LRecFem	8LVastMed	9LVastLat	10LGasMed	11LTibAnt	12lTibPost	13LPeroneusLong	14LSol	15LExtDigLong	16LFlexDigLong	17RAddLong	18RGlutMax	19RGlutMed	20RIliopsoas	21RSemiMemb	22RBicFemLong	23RRecFem	24RVastMed	25RVastLat	26RGasMed	27RTibAnt	28RTibPost	29RPeroneusLong	30RSol	31RExtDigLong	32RFlexDigLong
36.51	0.015869	0.079346	-0.045776	0.006409	0.007629	-0.049286	-0.028229	0.005493	0.25269	-0.031128	0.04837	0.012207	-0.13245	0.020142	0.076904	0.000305	-0.003052	0.27878	0.29587	-0.054169	-0.004425	-0.1062	-0.28046	-0.093842	0.22553	0.027466	0.13733	-0.002289	-0.36209	-0.065308	-0.002899	-0.004272
36.511	0.014954	0.10727	-0.045166	0.005493	0.001678	-0.048676	-0.005341	0.010223	0.2446	-0.002747	0.08255	0.003815	-0.051727	0.001373	0.048981	0.00061	-0.004883	0.21774	0.27679	0.031128	0.001068	-0.10056	-0.47791	0.001221	0.15671	0.025482	0.20752	0.010681	-0.063477	-0.24948	0.001526	-0.004272
36.512	0.020142	0.11765	-0.045929	0.005188	0.004272	-0.044098	-0.002441	0.011902	0.23117	0.000916	0.023346	0.007629	-0.018768	-0.006256	0.023804	0.00473	-0.010376	0.18356	0.024109	0.029144	-0.000916	-0.10483	-0.43915	0.06958	0.18082	0.037994	0.14145	0.001526	0.62607	-0.54031	-0.000458	-0.007477
36.513	0.016937	0.13214	-0.043793	-0.006256	-0.005951	-0.04715	0.005035	0.005493	0.2417	-0.010681	0.024719	0.010223	-0.021973	-0.1088	0.049438	-0.00473	-0.014648	0.15335	0.40268	-0.17792	-0.0177	-0.087433	0.066071	0.067596	-0.18784	0.028076	-0.28992	-0.097961	-0.005341	-0.59341	-0.005493	-0.014801
36.514	0.010376	0.11658	-0.071411	-0.010681	-0.008392	-0.044403	-0.014496	-0.002289	0.22751	-0.011597	0.08255	0.010223	-0.040283	-0.1181	0.076294	-0.014801	-0.007324	0.14694	0.439	-0.24384	-0.036316	-0.09964	0.083771	-0.089874	-0.39841	0.009613	-0.072784	0.016022	-0.62454	-0.005341	-0.005188	-0.009003
36.515	0.016937	0.11185	-0.11704	-0.006561	-0.020905	-0.046387	0.010529	0.011902	0.23651	-0.012817	0.016174	0.002594	0.026703	-0.011902	0.062103	0.000763	-0.022278	0.092468	0.24536	-0.059509	-0.031433	-0.11643	-0.075531	0.13504	-0.36224	-0.002747	0.28061	0.030365	0.21255	0.26718	-0.004883	-0.006104
36.516	0.008087	0.11292	-0.15243	0.035706	-0.027618	-0.030212	0.012207	0.000763	0.22476	0.021667	-0.039368	0.004578	0.079498	0.036163	0.0383	0.000763	-0.034027	-0.013428	0.11353	0.22324	-0.019684	-0.12146	-0.27863	0.20309	-0.00946	-0.001068	0.22888	0.000763	1.4801	0.094299	-0.005035	-0.00473
36.517	0.011597	0.1239	-0.13565	0.041962	-0.018311	-0.052948	0.002441	0.005341	0.21683	0.035858	0.083466	0.009308	0.0383	0.035248	0.041504	-0.00351	-0.030518	0.028992	0.024719	0.38269	-0.009918	-0.12665	-0.6807	-0.053406	0.12466	-0.002899	0.33066	-0.015717	0.95169	-0.041962	-0.005341	-0.004425
36.518	0.007172	0.12436	-0.032654	0.01236	0.007782	-0.049591	-0.00061	0.011902	0.21225	0.028076	0.09079	0.010681	0.099945	0.1059	0.03952	-0.002136	0.006256	0.03891	0.17563	0.26108	-0.020142	-0.16113	-0.43076	-0.030975	0.15503	-0.009613	0.44968	-0.017548	-0.17425	-0.10208	0.003052	-0.003815
36.519	0.009613	0.1091	0.052795	-0.006561	0.014648	-0.055084	-0.005951	0.003662	0.21027	-0.011444	0.00885	0.008698	0.099487	0.1532	0.029755	0.008087	0.02121	0.0383	0.03006	0.077209	-0.085144	-0.15869	-0.15274	-0.046844	0.10498	-0.011902	0.32883	-0.004883	-0.11185	-0.021362	-0.007782	-0.002594
36.52	0.009155	0.10132	0.047913	0	-0.001984	-0.064392	-0.025482	0.014038	0.21362	-0.007935	0.006256	0.006866	0.11169	0.020599	0.033264	-0.001984	0.006104	0.051117	0.4744	0.004578	-0.11917	-0.16037	-0.09903	-0.080109	0.019379	-0.007019	0.33768	0.002289	0.22751	0.12695	-0.00473	-0.01236
36.521	0.006256	0.12848	0.066376	0.020294	-0.016785	-0.053253	-0.027161	0.005035	0.21759	0.003815	0.12528	0.006256	0.065918	-0.044708	0.061951	0.011292	0.013123	0.056	0.50461	0.015411	-0.075073	-0.1442	-0.058746	-0.11063	-0.042419	-0.00885	0.17258	-0.000153	0.44022	0.21011	0.001373	0.000458
36.522	0.007019	0.13565	0.015869	0.005951	-0.041351	-0.050964	-0.027161	0.005646	0.224	0.021667	0.045166	0.007172	0.019226	-0.024719	0.03067	0.000916	0.011292	-0.027161	-0.046234	0.12283	-0.1294	-0.13306	-0.061646	-0.14114	-0.070648	-0.003967	-0.22186	-0.001068	0.22278	0.056305	-0.002899	-0.001526
36.523	0.016785	0.11246	0.010529	-0.000305	-0.00473	-0.045166	-0.040131	0.008545	0.23148	-0.009766	-0.17532	0.005798	0.053711	-0.090942	0	0.016785	0.001831	-0.033417	-0.077362	0.1564	-0.011902	-0.12253	-0.085754	-0.12482	-0.071106	0.003662	-0.49881	-0.000763	-0.049744	-0.08606	-0.001068	-0.00412
36.524	0.012817	0.10513	0.021973	0.012207	0.054016	-0.043793	-0.059357	0.010223	0.2211	-0.005493	-0.17838	0.01236	0.085602	-0.17166	0.029297	0.015717	-0.003967	0.025787	0.31296	0.075531	0.059052	-0.11627	-0.044708	-0.026855	0.03067	-0.000458	-0.40588	-0.004578	-0.059662	-0.015564	-0.001678	-0.002136
36.525	0.027466	0.076141	0.000763	0.016174	0.048981	-0.031433	-0.065002	0.005493	0.21988	-0.004272	-0.13489	0.027313	0.10361	-0.16113	0.042877	0.044861	0.002747	-0.037231	0.52322	0.042419	0.04303	-0.11932	-0.028381	0.11017	0.13184	-0.003967	-0.067139	-0.006104	0.11475	0.18707	-0.001221	-0.01358
36.526	0.007477	0.071869	-0.030212	0.003357	0.023499	-0.034485	-0.048676	0.018005	0.21439	-0.018768	-0.11108	0.005646	0.11383	-0.27557	0.020294	0.10803	-0.006866	-0.14633	0.24185	-0.027313	0.018158	-0.11047	-0.00473	0.10925	0.033417	-0.007172	-0.075073	-0.006866	0.10391	0.23712	-0.005493	-0.015259
36.527	0.031433	0.091553	-0.039368	0.002899	0.018158	-0.008698	-0.045471	0.009003	0.21072	-0.022125	-0.11337	0.02182	0.080414	-0.2417	-0.030365	-0.53024	-0.009613	-0.23895	0.081635	-0.028992	0.043793	-0.16022	0.022125	-0.000458	-0.022278	-0.007782	-0.045929	0.000458	-0.14694	0.16068	-0.002747	-0.014038
36.528	0.031586	0.10788	-0.01709	0.013275	-0.000305	-0.029449	-0.041809	0.001831	0.21271	-0.033264	-0.030212	0.033722	0.058289	-0.016022	0.018311	0.051575	0.000305	-0.25681	0.74616	-0.00351	0.037689	-0.18173	0.069122	0.030975	-0.048676	-0.005341	0.069733	-0.001984	-0.32272	0.12756	-0.004578	-0.013275
36.529	0.031281	0.13794	-0.017548	0.024109	-0.022278	-0.046692	-0.03418	0.000153	0.20813	-0.061951	0.121	0.016479	0.051727	0.042877	0.007324	0.1239	-0.00885	-0.18295	1.3676	-0.046387	-0.033417	-0.1796	-0.177	0.11887	0.13107	-0.004578	0.13519	-0.003815	-0.20889	0.069733	-0.004272	-0.020447
